<svg width="84" height="85" viewBox="0 0 84 85" fill="none" xmlns="http://www.w3.org/2000/svg">
<path d="M71.3123 53.5637L69.6718 53.0801L69.6862 53.0299C70.0293 51.845 70.0333 50.5859 69.6977 49.3987C71.3691 40.1566 68.7657 30.2397 61.8834 23.1033C56.508 17.5293 49.3587 14.4597 41.7524 14.4597C34.1462 14.4597 26.9969 17.5293 21.6216 23.1033C14.4153 30.5759 11.9 41.097 14.0719 50.6998C14.0134 51.4848 14.0952 52.2742 14.3134 53.0299L14.3278 53.0801L12.6873 53.5637C12.0689 53.746 11.5474 54.1694 11.2375 54.7408C10.9276 55.3122 10.8548 55.9847 11.0349 56.6105L13.3213 64.5519C13.5015 65.1776 13.9199 65.7053 14.4846 66.0189C15.0493 66.3325 15.7139 66.4062 16.3323 66.2239L17.9728 65.7403L17.9872 65.7905C18.2262 66.622 18.6248 67.3977 19.1602 68.0732C19.6956 68.7488 20.3573 69.3109 21.1076 69.7275C21.8578 70.1442 22.6818 70.4071 23.5325 70.5012C24.3833 70.5954 25.244 70.519 26.0655 70.2764L29.8703 69.1547C30.7052 68.9075 31.4092 68.3353 31.8277 67.5636C32.2462 66.7919 32.3451 65.8837 32.1028 65.0383L26.6195 45.993C26.3747 45.1484 25.8091 44.4365 25.0466 44.013C24.2841 43.5896 23.3869 43.4892 22.5514 43.7339L18.7466 44.8556C17.7334 45.1525 16.8075 45.6961 16.0499 46.4388C15.3615 38.7684 17.8352 30.8477 23.4782 24.9821L25.3307 26.903C25.9456 27.5534 26.7734 27.9549 27.6595 28.0326C28.5456 28.1104 29.4294 27.859 30.1457 27.3255C33.5002 24.7988 37.5706 23.4342 41.7525 23.4342C45.9343 23.4342 50.0047 24.7988 53.3592 27.3255C54.0755 27.8591 54.9593 28.1104 55.8454 28.0327C56.7315 27.9549 57.5593 27.5534 58.1742 26.903L60.0268 24.982C65.5692 30.7431 68.0554 38.4869 67.4902 46.0286C66.8276 45.4931 66.0674 45.0946 65.253 44.8556L61.4482 43.7339C60.6127 43.4893 59.7154 43.5896 58.9529 44.013C58.1904 44.4365 57.6249 45.1484 57.3801 45.993L51.8968 65.0383C51.6544 65.8837 51.7533 66.7919 52.1719 67.5637C52.5904 68.3354 53.2943 68.9076 54.1293 69.1548L57.9341 70.2765C58.7556 70.519 59.6163 70.5954 60.467 70.5012C61.3177 70.407 62.1417 70.1441 62.8919 69.7275C63.6421 69.3109 64.3039 68.7488 64.8393 68.0732C65.3747 67.3977 65.7733 66.622 66.0123 65.7905L66.0268 65.7404L67.6673 66.224C67.9735 66.3143 68.2943 66.3426 68.6113 66.3074C68.9283 66.2722 69.2354 66.1742 69.515 66.0189C69.7946 65.8637 70.0412 65.6542 70.2408 65.4025C70.4404 65.1508 70.589 64.8617 70.6782 64.5519L72.9646 56.6104C73.1448 55.9847 73.0719 55.3122 72.762 54.7408C72.4521 54.1694 71.9307 53.746 71.3123 53.5637ZM17.1637 49.2946C17.604 48.4759 18.319 47.8433 19.1797 47.511L23.9856 64.2035C24.0338 64.371 24.1141 64.5272 24.222 64.6632C24.3299 64.7993 24.4632 64.9125 24.6143 64.9964C24.7654 65.0803 24.9313 65.1333 25.1027 65.1523C25.274 65.1713 25.4474 65.1559 25.6128 65.1071C25.7783 65.0584 25.9327 64.9771 26.0671 64.8679C26.2015 64.7588 26.3134 64.6239 26.3963 64.471C26.4793 64.3181 26.5316 64.1501 26.5504 63.9768C26.5692 63.8034 26.554 63.628 26.5058 63.4605L21.6955 46.7529L23.2856 46.2841C23.344 46.2667 23.4045 46.2579 23.4653 46.2578C23.5766 46.2585 23.686 46.2873 23.7836 46.3415C23.8592 46.383 23.9261 46.4392 23.9802 46.5069C24.0344 46.5746 24.0748 46.6524 24.0991 46.7359L29.5824 65.7812C29.6287 65.9503 29.6079 66.1309 29.5245 66.2847C29.4411 66.4385 29.3017 66.5532 29.1359 66.6045L25.3311 67.7262C24.3404 68.0171 23.2761 67.8984 22.3717 67.3962C21.4674 66.894 20.7969 66.0493 20.5073 65.0474L16.8335 52.2869C16.6903 51.7908 16.6457 51.2709 16.7024 50.7573C16.7591 50.2437 16.9159 49.7465 17.1637 49.2946ZM63.4921 65.0475C63.2024 66.0492 62.5318 66.8938 61.6276 67.396C60.7233 67.8982 59.6591 68.0169 58.6684 67.7262L54.8635 66.6045C54.6978 66.5533 54.5583 66.4385 54.4749 66.2847C54.3915 66.131 54.3707 65.9503 54.417 65.7813L59.9003 46.736C59.9247 46.6525 59.9651 46.5746 60.0192 46.507C60.0734 46.4393 60.1402 46.3831 60.2158 46.3416C60.3134 46.2874 60.4228 46.2586 60.5341 46.2579C60.5949 46.2579 60.6554 46.2668 60.7138 46.2841L62.2143 46.7265L57.3965 63.4605C57.3483 63.628 57.3331 63.8034 57.3519 63.9768C57.3707 64.1501 57.4231 64.3181 57.506 64.471C57.6734 64.7798 57.9553 65.0086 58.2895 65.1071C58.6237 65.2057 58.9829 65.1658 59.288 64.9964C59.5932 64.8269 59.8194 64.5417 59.9167 64.2035L64.7315 47.4801C65.6653 47.8179 66.4367 48.5029 66.889 49.3959C67.3413 50.2889 67.4403 51.3227 67.166 52.2869L63.4921 65.0475Z" fill="#1A2E60"/>
</svg>
