<svg width="96" height="96" viewBox="0 0 96 96" fill="none" xmlns="http://www.w3.org/2000/svg">
<path d="M87.7998 19H23.7998C21.5998 19 19.7998 20.8 19.7998 23V37.5C20.8998 37.2 22.1998 37 23.3998 37C24.1998 37 24.9998 37.1 25.7998 37.2V25H85.7998V63H51.8998L46.1998 69H87.7998C89.9998 69 91.7998 67.2 91.7998 65V23C91.7998 20.8 89.9998 19 87.7998 19Z" fill="#1A2E60"/>
<path d="M23.4999 58C28.1999 58 31.9999 54.2 31.9999 49.5C31.9999 44.8 28.1999 41 23.4999 41C18.7999 41 14.9999 44.8 14.9999 49.5C14.8999 54.2 18.7999 58 23.4999 58Z" fill="#1A2E60"/>
<path d="M56.2002 48.1C54.9002 46.1 52.3002 45.6 50.3002 46.8C49.9002 47 49.7002 47.4 49.5002 47.6L34.9002 62.8C33.5002 62.1 32.0002 61.5 30.5002 61C28.2002 60.6 25.8002 60.1 23.5002 60.1C21.2002 60.1 18.8002 60.5 16.5002 61.2C13.1002 62.1 10.1002 63.8 7.6002 65.9C7.0002 66.5 6.5002 67.4 6.3002 68.2L4.2002 77H34.1002V76.9L42.6002 67L55.7002 53.2C56.9002 52 57.3002 49.7 56.2002 48.1Z" fill="#1A2E60"/>
</svg>
