<svg width="70" height="70" viewBox="0 0 70 70" fill="none" xmlns="http://www.w3.org/2000/svg">
<path d="M59.9689 44.8205C61.1045 44.2459 62.0166 43.3098 62.5613 42.1596C63.106 41.0094 63.2524 39.7106 62.9773 38.468C62.7023 37.2255 62.0216 36.1098 61.0424 35.2969C60.0632 34.4839 58.8413 34.0201 57.5693 33.9784C56.2974 33.9367 55.0477 34.3195 54.0174 35.0665C52.987 35.8136 52.2346 36.8823 51.8788 38.1042C51.523 39.3261 51.584 40.6316 52.0522 41.815C52.5204 42.9984 53.3691 43.9923 54.4646 44.64C53.0357 45.2236 51.8503 46.2801 51.1068 47.6328L48.6117 52.1678L44.8014 47.0531C44.7406 46.9715 44.6616 46.9053 44.5707 46.8598C44.4798 46.8142 44.3794 46.7905 44.2777 46.7906H42.2844V44.1396C42.2824 42.7986 41.8625 41.4916 41.083 40.4004C40.3035 39.3093 39.2033 38.4882 37.9354 38.0515C38.7934 37.4311 39.4327 36.5547 39.7616 35.5483C40.0905 34.5418 40.092 33.457 39.7659 32.4496C39.4399 31.4423 38.803 30.5641 37.9467 29.9413C37.0904 29.3184 36.0588 28.9829 35 28.9829C33.9412 28.9829 32.9096 29.3184 32.0533 29.9413C31.197 30.5641 30.5601 31.4423 30.2341 32.4496C29.908 33.457 29.9095 34.5418 30.2384 35.5483C30.5673 36.5547 31.2066 37.4311 32.0646 38.0515C30.7966 38.488 29.6963 39.309 28.9168 40.4003C28.1373 41.4915 27.7174 42.7986 27.7156 44.1396V46.7906H25.7223C25.6206 46.7905 25.5202 46.8142 25.4293 46.8598C25.3384 46.9053 25.2594 46.9715 25.1986 47.0531L21.3869 52.1678L18.8932 47.6328C18.1493 46.2804 16.9641 45.224 15.5354 44.64C16.6313 43.9923 17.4804 42.9982 17.9488 41.8145C18.4173 40.6308 18.4784 39.3249 18.1225 38.1026C17.7667 36.8803 17.0142 35.8112 15.9835 35.064C14.9529 34.3167 13.7029 33.9337 12.4306 33.9754C11.1583 34.0172 9.936 34.4812 8.95656 35.2944C7.97711 36.1075 7.2962 37.2236 7.02119 38.4666C6.74618 39.7095 6.89272 41.0087 7.43769 42.1591C7.98267 43.3096 8.89508 44.2459 10.0311 44.8205C8.98825 45.3493 8.1122 46.1565 7.49999 47.1527C6.88778 48.1488 6.5633 49.295 6.5625 50.4642V61.3306C6.5625 61.5036 6.63121 61.6695 6.75351 61.7918C6.87581 61.9141 7.04169 61.9828 7.21465 61.9828C7.38761 61.9828 7.55349 61.9141 7.67579 61.7918C7.79809 61.6695 7.8668 61.5036 7.8668 61.3306V50.4642C7.86824 49.1324 8.39788 47.8554 9.33953 46.9135C10.2812 45.9716 11.558 45.4416 12.8898 45.4398H12.9828C13.9574 45.4408 14.9139 45.7031 15.7526 46.1994C16.5913 46.6957 17.2816 47.4079 17.7516 48.2617L20.7348 53.6853C20.7348 53.6853 20.7416 53.6976 20.7443 53.7045L21.35 54.8051C21.4064 54.9073 21.4892 54.9925 21.5897 55.0519C21.6902 55.1112 21.8047 55.1426 21.9215 55.1427H28.2023C28.6012 55.1427 28.9837 55.3012 29.2658 55.5832C29.5478 55.8653 29.7062 56.2478 29.7062 56.6467C29.7062 57.0455 29.5478 57.428 29.2658 57.7101C28.9837 57.9921 28.6012 58.1506 28.2023 58.1506H20.6445C20.2811 58.1515 19.9232 58.0618 19.6031 57.8897C19.283 57.7176 19.0108 57.4685 18.8111 57.1648C18.7974 57.1396 18.7819 57.1153 18.7646 57.0924L15.2277 51.3502C15.1842 51.2746 15.1259 51.2085 15.0563 51.1558C14.9868 51.1032 14.9074 51.065 14.8228 51.0436C14.7382 51.0222 14.6502 51.018 14.564 51.0312C14.4777 51.0444 14.395 51.0747 14.3208 51.1205C14.2465 51.1662 14.1821 51.2264 14.1315 51.2975C14.0809 51.3685 14.0451 51.449 14.0261 51.5342C14.0072 51.6193 14.0055 51.7074 14.0212 51.7932C14.0369 51.8791 14.0697 51.9608 14.1176 52.0338L17.4549 57.4574L12.8844 63.5742C12.829 63.6424 12.788 63.7212 12.7638 63.8056C12.7396 63.8901 12.7327 63.9786 12.7436 64.0658C12.7544 64.1531 12.7828 64.2372 12.827 64.3131C12.8712 64.3891 12.9303 64.4554 13.0007 64.5079C13.0712 64.5605 13.1515 64.5982 13.2369 64.619C13.3223 64.6397 13.411 64.6429 13.4977 64.6285C13.5844 64.6141 13.6673 64.5823 13.7414 64.535C13.8155 64.4878 13.8793 64.426 13.9289 64.3535L18.2738 58.5252C18.9209 59.1188 19.7664 59.4494 20.6445 59.4521H28.2064C28.9403 59.4359 29.6387 59.133 30.152 58.6083C30.6653 58.0835 30.9527 57.3787 30.9527 56.6446C30.9527 55.9106 30.6653 55.2057 30.152 54.6809C29.6387 54.1562 28.9403 53.8533 28.2064 53.8371H22.307L22.0773 53.4269L26.049 48.0949H43.951L47.9158 53.4269L47.6861 53.8371H41.7977C41.0638 53.8533 40.3654 54.1562 39.8521 54.6809C39.3388 55.2057 39.0514 55.9106 39.0514 56.6446C39.0514 57.3787 39.3388 58.0835 39.8521 58.6083C40.3654 59.133 41.0638 59.4359 41.7977 59.4521H49.3555C50.232 59.4487 51.0758 59.1187 51.7221 58.5265L56.067 64.3549C56.1731 64.4856 56.3256 64.5702 56.4927 64.591C56.6597 64.6118 56.8284 64.5672 56.9633 64.4665C57.0982 64.3659 57.189 64.2169 57.2166 64.0509C57.2443 63.8848 57.2066 63.7145 57.1115 63.5756L52.5451 57.4478L55.8811 52.0256C55.9259 51.9528 55.956 51.8718 55.9697 51.7874C55.9833 51.7029 55.9801 51.6167 55.9604 51.5334C55.9406 51.4502 55.9047 51.3717 55.8546 51.3024C55.8045 51.233 55.7413 51.1743 55.6685 51.1294C55.5956 51.0845 55.5147 51.0544 55.4303 51.0408C55.3458 51.0272 55.2595 51.0303 55.1763 51.0501C55.0931 51.0698 55.0146 51.1057 54.9453 51.1558C54.8759 51.2059 54.8172 51.2692 54.7723 51.342L51.2367 57.0937C51.2218 57.1138 51.2081 57.1348 51.1957 57.1566C50.996 57.4623 50.7231 57.7131 50.4016 57.8862C50.0802 58.0594 49.7206 58.1493 49.3555 58.1478H41.7977C41.3988 58.1478 41.0163 57.9894 40.7342 57.7073C40.4522 57.4253 40.2938 57.0428 40.2938 56.6439C40.2938 56.2451 40.4522 55.8625 40.7342 55.5805C41.0163 55.2985 41.3988 55.14 41.7977 55.14H48.0785C48.1953 55.1399 48.3098 55.1085 48.4103 55.0491C48.5108 54.9897 48.5936 54.9045 48.65 54.8023L49.2516 53.7086C49.2611 53.6922 49.2707 53.6744 49.2789 53.6566L52.2484 48.2617C52.7185 47.4076 53.4093 46.6953 54.2486 46.1991C55.0879 45.703 56.045 45.4413 57.0199 45.4412H57.1129C58.4448 45.443 59.7216 45.973 60.6632 46.9149C61.6049 47.8568 62.1345 49.1337 62.1359 50.4656V61.332C62.1359 61.505 62.2046 61.6708 62.3269 61.7931C62.4492 61.9154 62.6151 61.9842 62.7881 61.9842C62.961 61.9842 63.1269 61.9154 63.2492 61.7931C63.3715 61.6708 63.4402 61.505 63.4402 61.332V50.4642C63.4392 49.2947 63.1143 48.1483 62.5016 47.1522C61.8889 46.156 61.0123 45.3489 59.9689 44.8205ZM8.18945 39.7086C8.18945 38.8327 8.44917 37.9766 8.93576 37.2483C9.42235 36.5201 10.114 35.9525 10.9231 35.6173C11.7323 35.2822 12.6227 35.1945 13.4817 35.3653C14.3407 35.5362 15.1298 35.958 15.7491 36.5773C16.3684 37.1966 16.7901 37.9856 16.961 38.8446C17.1319 39.7037 17.0442 40.594 16.709 41.4032C16.3738 42.2124 15.8062 42.904 15.078 43.3906C14.3498 43.8772 13.4936 44.1369 12.6178 44.1369C11.4438 44.1354 10.3182 43.6684 9.48808 42.8383C8.65792 42.0081 8.1909 40.8826 8.18945 39.7086ZM31.2949 33.9965C31.2949 33.2633 31.5123 32.5467 31.9197 31.9371C32.327 31.3276 32.9059 30.8525 33.5833 30.572C34.2606 30.2915 35.0059 30.2182 35.725 30.3613C36.444 30.5045 37.1044 30.8576 37.6227 31.3761C38.141 31.8946 38.4939 32.5551 38.6368 33.2742C38.7796 33.9933 38.706 34.7386 38.4253 35.4158C38.1445 36.093 37.6693 36.6718 37.0596 37.0789C36.4499 37.486 35.7331 37.7032 35 37.7029C34.0173 37.7018 33.0752 37.311 32.3803 36.6161C31.6855 35.9213 31.2946 34.9791 31.2936 33.9965H31.2949ZM29.0213 44.1396C29.0227 42.7785 29.5641 41.4735 30.5265 40.5111C31.489 39.5486 32.794 39.0073 34.1551 39.0058H35.8477C37.2088 39.0073 38.5137 39.5486 39.4762 40.5111C40.4387 41.4735 40.98 42.7785 40.9814 44.1396V46.7906H38.9648V44.0234C38.9689 43.9354 38.955 43.8474 38.9241 43.7648C38.8932 43.6823 38.8458 43.6068 38.785 43.5431C38.7241 43.4794 38.6509 43.4286 38.5698 43.394C38.4888 43.3593 38.4015 43.3414 38.3134 43.3414C38.2252 43.3414 38.138 43.3593 38.0569 43.394C37.9759 43.4286 37.9027 43.4794 37.8418 43.5431C37.7809 43.6068 37.7336 43.6823 37.7027 43.7648C37.6717 43.8474 37.6579 43.9354 37.6619 44.0234V46.7974H32.3299V44.0234C32.3339 43.9354 32.3201 43.8474 32.2891 43.7648C32.2582 43.6823 32.2109 43.6068 32.15 43.5431C32.0891 43.4794 32.0159 43.4286 31.9349 43.394C31.8538 43.3593 31.7666 43.3414 31.6784 43.3414C31.5903 43.3414 31.503 43.3593 31.422 43.394C31.3409 43.4286 31.2677 43.4794 31.2068 43.5431C31.146 43.6068 31.0986 43.6823 31.0677 43.7648C31.0368 43.8474 31.0229 43.9354 31.027 44.0234V46.7974H29.0199L29.0213 44.1396ZM52.9553 39.7086C52.9553 38.8327 53.215 37.9766 53.7016 37.2483C54.1882 36.5201 54.8798 35.9525 55.6889 35.6173C56.4981 35.2822 57.3885 35.1945 58.2475 35.3653C59.1065 35.5362 59.8956 35.958 60.5149 36.5773C61.1342 37.1966 61.556 37.9856 61.7268 38.8446C61.8977 39.7037 61.81 40.594 61.4748 41.4032C61.1397 42.2124 60.5721 42.904 59.8438 43.3906C59.1156 43.8772 58.2594 44.1369 57.3836 44.1369C56.2093 44.1358 55.0835 43.6689 54.253 42.8387C53.4226 42.0086 52.9554 40.8828 52.9539 39.7086H52.9553Z" fill="#1A2E60"/>
<path d="M22.2593 25.9848C22.3242 25.9847 22.3887 25.975 22.4507 25.9561L28.8587 23.9887C30.7653 24.7326 32.7949 25.1111 34.8415 25.1043C35.3351 25.1043 35.8232 25.0824 36.3017 25.0414C37.8726 27.017 40.6944 28.2311 43.7761 28.2311C44.8992 28.2348 46.0164 28.0694 47.0902 27.7402L50.8212 29.132C50.9349 29.1742 51.0581 29.1839 51.177 29.16C51.2959 29.136 51.4058 29.0794 51.4942 28.9965C51.5827 28.9135 51.6463 28.8075 51.6779 28.6905C51.7095 28.5734 51.7078 28.4498 51.673 28.3336L50.828 25.524C51.9068 24.4029 52.4974 23.0344 52.4974 21.6316C52.4974 19.1379 50.6448 16.867 47.7409 15.7527C47.7519 15.5859 47.7573 15.4178 47.7573 15.2482C47.7573 9.81094 41.9632 5.38672 34.8415 5.38672C27.7198 5.38672 21.9271 9.81094 21.9271 15.2482C21.9271 17.3223 22.7474 19.2855 24.3005 20.9549L21.711 24.9799C21.6478 25.0783 21.6121 25.1919 21.6079 25.3088C21.6036 25.4257 21.6308 25.5416 21.6868 25.6444C21.7427 25.7471 21.8252 25.8329 21.9257 25.8928C22.0262 25.9527 22.1409 25.9845 22.2579 25.9848H22.2593ZM51.1945 21.6316C51.1945 22.8061 50.6599 23.9217 49.6482 24.8568C49.5583 24.9395 49.4936 25.0458 49.4615 25.1636C49.4293 25.2814 49.431 25.4058 49.4663 25.5227L50.046 27.4518L47.3335 26.44C47.1939 26.3869 47.0402 26.384 46.8987 26.4318C45.8918 26.7667 44.8372 26.9361 43.7761 26.9336C41.4232 26.9336 39.2644 26.1488 37.8726 24.8363C42.7753 23.9326 46.5952 20.8893 47.5345 17.0775C49.778 18.0195 51.1945 19.7586 51.1945 21.6316ZM25.6773 21.2215C25.759 21.0951 25.7945 20.9443 25.7775 20.7947C25.7605 20.6451 25.6923 20.5061 25.5843 20.4012C24.0435 18.8973 23.23 17.1199 23.23 15.2455C23.23 10.526 28.439 6.68828 34.8415 6.68828C41.2441 6.68828 46.4544 10.5273 46.4544 15.2441C46.4544 19.9609 41.2454 23.8014 34.8415 23.8014C32.887 23.8099 30.9499 23.4341 29.1403 22.6953C29.0002 22.6369 28.844 22.6292 28.6987 22.6734L23.7769 24.1869L25.6773 21.2215Z" fill="#1A2E60"/>
<path d="M28.4593 13.5707H41.2247C41.3977 13.5707 41.5635 13.502 41.6858 13.3797C41.8081 13.2574 41.8769 13.0915 41.8769 12.9186C41.8769 12.7456 41.8081 12.5797 41.6858 12.4574C41.5635 12.3351 41.3977 12.2664 41.2247 12.2664H28.4593C28.2863 12.2664 28.1204 12.3351 27.9981 12.4574C27.8758 12.5797 27.8071 12.7456 27.8071 12.9186C27.8071 13.0915 27.8758 13.2574 27.9981 13.3797C28.1204 13.502 28.2863 13.5707 28.4593 13.5707Z" fill="#1A2E60"/>
<path d="M41.8769 17.5683C41.8766 17.3956 41.8077 17.2301 41.6854 17.1081C41.5632 16.9861 41.3975 16.9176 41.2248 16.9176H28.4593C28.3713 16.9135 28.2833 16.9274 28.2008 16.9583C28.1182 16.9892 28.0428 17.0366 27.979 17.0974C27.9153 17.1583 27.8645 17.2315 27.8299 17.3126C27.7952 17.3936 27.7773 17.4809 27.7773 17.569C27.7773 17.6572 27.7952 17.7444 27.8299 17.8255C27.8645 17.9065 27.9153 17.9797 27.979 18.0406C28.0428 18.1015 28.1182 18.1488 28.2008 18.1797C28.2833 18.2107 28.3713 18.2245 28.4593 18.2205H41.2248C41.3104 18.2205 41.3952 18.2036 41.4743 18.1708C41.5535 18.1381 41.6254 18.09 41.6859 18.0295C41.7465 17.9689 41.7945 17.897 41.8273 17.8179C41.8601 17.7388 41.8769 17.654 41.8769 17.5683Z" fill="#1A2E60"/>
</svg>
