<svg width="66" height="46" viewBox="0 0 66 46" fill="none" xmlns="http://www.w3.org/2000/svg">
<path d="M64.7811 8.88319H64.7223C63.592 8.88964 63.4167 8.01202 63.3971 7.60455V1.23163C63.3971 0.551281 62.7804 0 62.0214 0H41.6388C36.5248 0 34.617 1.69441 34.1437 2.22633L34.0137 2.38766L34.0127 2.39042L33.6095 2.88455C33.0681 3.54922 32.5957 3.2662 32.3689 3.04864L31.5975 2.18853L31.2159 1.77738C30.5745 1.17539 28.9028 0 25.5894 0H3.87441C3.11334 0 2.49666 0.551281 2.49666 1.23163V7.52342C2.49666 8.62506 1.82737 8.84631 1.41694 8.88319H1.11169C0.777562 8.90163 0 9.07494 0 10.3536V40.3413C0 41.0769 0.667219 41.6724 1.49016 41.6724H21.3087C27.6313 41.6724 30.3868 43.8038 31.2128 44.6215L31.6841 45.1433C31.6841 45.1433 32.9495 46.4219 34.2818 45.1433L34.5582 44.8538L34.5623 44.852L34.915 44.4832C34.9253 44.4722 35.0099 44.3874 35.1326 44.2749C36.1876 43.3576 38.8245 41.6724 43.9808 41.6724H64.4047C65.2286 41.6724 65.8948 41.0769 65.8948 40.3413V10.0632C65.8948 8.97906 65.0172 8.88872 64.7811 8.88319ZM60.3281 35.636C60.3281 36.2269 59.7764 36.7035 59.0896 36.7035H42.2854C36.3052 36.7035 34.1344 39.1188 34.1344 39.1188L33.859 39.4489L33.7301 39.6084C33.1598 40.3007 32.3204 39.6139 32.3163 39.6102L31.9296 39.1778C31.6429 38.8699 29.4463 36.7026 24.1302 36.7026H6.80522C6.1215 36.7026 5.56875 36.2251 5.56875 35.6351V3.68105C5.56875 3.09105 6.1215 2.61352 6.80522 2.61352H20.2558C30.261 2.61352 31.2087 7.69397 31.2737 9.16989V31.3926C31.2737 33.0077 32.1348 33.311 32.6205 33.3553H33.3434C33.8384 33.311 34.6253 33.0483 34.6253 31.7881V8.88319H34.617C34.6912 7.03483 35.4977 2.61259 41.515 2.61259H59.0896C59.7764 2.61259 60.3281 3.09013 60.3281 3.68013V35.636Z" fill="#1A2E60"/>
</svg>
