<svg width="34" height="49" viewBox="0 0 34 49" fill="none" xmlns="http://www.w3.org/2000/svg">
<path d="M17.0002 34.3C22.3576 34.3 26.7145 29.9023 26.7145 24.5V9.8C26.7145 4.3953 22.3576 0 17.0002 0C11.6427 0 7.28589 4.3953 7.28589 9.8V24.5C7.28589 29.9023 11.6427 34.3 17.0002 34.3Z" fill="#1A2E60"/>
<path d="M34 24.5V19.6C34 18.2476 32.9144 17.15 31.5714 17.15C30.2284 17.15 29.1429 18.2476 29.1429 19.6V24.5C29.1429 31.2547 23.6956 36.75 17 36.75C10.3044 36.75 4.85714 31.2547 4.85714 24.5V19.6C4.85714 18.2476 3.77157 17.15 2.42857 17.15C1.08557 17.15 0 18.2476 0 19.6V24.5C0 33.124 6.34586 40.2584 14.5714 41.454V44.1H7.28571C5.94271 44.1 4.85714 45.1952 4.85714 46.55C4.85714 47.9049 5.94271 49 7.28571 49H26.7143C28.0573 49 29.1429 47.9049 29.1429 46.55C29.1429 45.1952 28.0573 44.1 26.7143 44.1H19.4286V41.454C27.6541 40.2584 34 33.124 34 24.5Z" fill="#1A2E60"/>
</svg>
