<svg width="64" height="64" viewBox="0 0 64 64" fill="none" xmlns="http://www.w3.org/2000/svg">
<path d="M54.6775 3.86363C63.7066 6.2944 56.2052 14.8422 54.3514 20.1105C53.1757 23.4517 52.5503 26.8831 50.2341 29.6336C48.0084 32.2768 44.8363 34.2996 42.1382 36.4397C42.9261 36.7661 43.714 37.0924 44.5019 37.4188C44.0654 34.0941 43.2388 30.5661 43.8914 27.2744C44.3518 24.9523 45.5357 22.5716 46.3008 20.332C47.1903 17.7282 47.8629 15.0464 48.7605 12.4506C49.1137 11.4292 53.3402 2.62674 54.9506 3.36734C56.5586 4.10686 57.9673 1.72075 56.3483 0.976194C51.7733 -1.12782 47.5536 7.61161 46.3729 10.8898C44.685 15.5757 42.6615 20.6434 41.3324 25.4009C40.2409 29.3075 41.2081 33.4232 41.7326 37.4188C41.8951 38.6564 43.1054 39.1839 44.0963 38.3979C48.1027 35.22 52.52 32.6289 54.6871 27.8601C56.8218 23.1627 58.103 18.4891 60.6139 13.9117C64.1681 7.43237 62.4107 3.07701 55.4137 1.19332C53.6908 0.729491 52.9557 3.4001 54.6775 3.86363Z" fill="#1A2E60"/>
<path d="M49.7128 10.0967C52.5757 10.344 55.0212 11.5749 57.2484 13.3841C58.62 14.4983 60.5909 12.5505 59.2065 11.426C56.3503 9.10581 53.3908 7.64517 49.7128 7.32743C47.9376 7.17406 47.9479 9.94418 49.7128 10.0967Z" fill="#1A2E60"/>
<path d="M10.8409 38.7976C21.6102 38.8172 32.3794 38.8368 43.1487 38.8564C44.9307 38.8596 44.9334 36.0904 43.1487 36.0871C32.3794 36.0675 21.6102 36.0479 10.8409 36.0283C9.05892 36.0251 9.05625 38.7943 10.8409 38.7976Z" fill="#1A2E60"/>
<path d="M10.7379 33.3804C17.5413 33.3804 24.3447 33.3804 31.1482 33.3804C32.93 33.3804 32.933 30.6111 31.1482 30.6111C24.3447 30.6111 17.5413 30.6111 10.7379 30.6111C8.95603 30.6111 8.95308 33.3804 10.7379 33.3804Z" fill="#1A2E60"/>
<path d="M10.8408 27.2917C16.1399 27.3325 21.439 27.3732 26.7381 27.414C28.5205 27.4277 28.5223 24.6585 26.7381 24.6448C21.439 24.604 16.1399 24.5632 10.8408 24.5225C9.05849 24.5087 9.05672 27.278 10.8408 27.2917Z" fill="#1A2E60"/>
<path d="M51.3223 29.9448C51.2854 35.017 51.739 40.3579 51.2099 45.4071C50.7149 50.1307 49.2298 51.5704 44.7187 51.5213C41.8624 51.4902 39.0061 51.4591 36.1498 51.428C30.4372 51.3658 24.7245 51.3036 19.0119 51.2415C16.5939 51.2151 14.0627 51.4251 11.6671 51.1615C9.32037 51.4526 7.16174 50.8613 5.19127 49.3877C5.02391 48.0341 4.95333 46.6768 4.97952 45.3159C4.84568 40.0442 4.95853 34.7557 4.94805 29.4815C4.944 27.4485 3.88872 21.4017 4.92868 19.7373C6.49832 17.2251 10.7445 17.7629 13.1082 17.7477C24.5573 17.6746 36.0064 17.6014 47.4555 17.5283C49.2368 17.5169 49.2407 14.7477 47.4555 14.7591C38.4597 14.8165 29.464 14.874 20.4683 14.9315C16.4108 14.9574 12.2512 14.7391 8.20142 15.0099C6.67157 15.1121 4.98442 15.0814 3.72445 16.1305C0.135884 19.1186 2.1756 27.8652 2.18366 31.9176C2.19173 35.9776 2.18694 40.0379 2.20787 44.0979C2.21987 46.4268 1.87624 49.6477 3.1615 51.7722C5.52533 55.6795 12.8362 53.9435 16.5637 53.984C25.1326 54.0773 33.7015 54.1706 42.2704 54.2639C45.5339 54.2994 51.8174 55.682 53.6616 51.789C54.7452 49.5015 53.9777 45.6026 53.9952 43.1982C54.0273 38.7804 54.0594 34.3626 54.0915 29.9448C54.1045 28.1625 51.3353 28.1606 51.3223 29.9448Z" fill="#1A2E60"/>
<path d="M3.96885 45.51C19.8663 45.4969 35.7638 45.4839 51.6612 45.4708C53.443 45.4694 53.4461 42.7001 51.6612 42.7016C35.7638 42.7147 19.8663 42.7277 3.96885 42.7408C2.18705 42.7422 2.18397 45.5115 3.96885 45.51Z" fill="#1A2E60"/>
<path d="M27.7638 49.6881C29.5456 49.6881 29.5486 46.9189 27.7638 46.9189C25.9819 46.9189 25.979 49.6881 27.7638 49.6881Z" fill="#1A2E60"/>
<path d="M16.1743 63.3173C23.8341 63.395 31.4907 63.3195 39.1475 63.0908C40.9254 63.0377 40.933 60.2682 39.1475 60.3216C31.4907 60.5503 23.8341 60.6258 16.1743 60.5481C14.3918 60.53 14.3904 63.2992 16.1743 63.3173Z" fill="#1A2E60"/>
<path d="M29.9166 54.3516C30.9549 55.0166 31.3818 56.6074 32.0963 57.5852C32.9952 58.8153 34.4449 59.8704 35.0222 61.2931C35.6837 62.9229 38.3636 62.2104 37.6926 60.5569C36.9145 58.6397 35.3322 57.4571 34.1965 55.781C33.251 54.3856 32.7988 52.9113 31.3143 51.9604C29.8091 50.9964 28.4189 53.3922 29.9166 54.3516Z" fill="#1A2E60"/>
<path d="M23.0888 53.0713C22.6241 54.4209 21.5402 55.468 20.6949 56.5887C19.7874 57.7922 18.9561 59.0439 18.179 60.335C17.2577 61.8657 19.6512 63.2595 20.5702 61.7326C21.4808 60.2197 22.4666 58.761 23.5637 57.3765C24.4573 56.2487 25.2844 55.186 25.7592 53.8074C26.3407 52.1188 23.6666 51.3935 23.0888 53.0713Z" fill="#1A2E60"/>
</svg>
